# Blender v2.59 (sub 0) OBJ File: ''
# www.blender.org
v 0.544160 -0.661515 0.079497
v 0.349680 -0.661515 0.079497
v 0.544160 -0.661515 -0.114983
v 0.349680 -0.631688 -0.114983
v 0.349680 -0.661515 -0.114983
v 0.544160 -0.631688 -0.114983
v 0.544160 -0.631688 0.079497
v 0.349680 -0.631688 0.079497
v 0.514907 -0.631688 -0.085730
v 0.514907 -0.631688 0.050244
v 0.378933 -0.631688 0.050244
v 0.378933 -0.631688 -0.085730
v 0.378933 -0.571598 0.050244
v 0.378933 -0.571598 -0.085730
v 0.514907 -0.571598 -0.085730
v 0.514907 -0.571598 0.050244
v 0.446920 -0.571598 0.050244
v 0.514907 -0.571598 -0.017743
v 0.514907 -0.571598 0.050244
v 0.378933 -0.571598 -0.017743
v 0.378933 -0.571598 -0.085730
v 0.446920 -0.571598 -0.085730
v 0.378933 -0.571598 0.050244
v 0.514907 -0.571598 -0.085730
v 0.378933 -0.571598 -0.017743
v 0.514907 -0.571598 -0.017743
v 0.446920 -0.571598 0.050244
v 0.514907 -0.571598 -0.085730
v 0.446920 -0.571598 -0.085730
v 0.446920 0.158319 -0.085730
v 0.514907 0.158319 -0.017743
v 0.446920 0.158319 0.050244
v 0.446920 0.168922 -0.098341
v 0.378933 0.158319 -0.017743
v 0.527518 0.168922 -0.017743
v 0.446920 0.168922 0.062856
v 0.366321 0.168922 -0.017743
v 0.366321 0.187440 -0.017743
v 0.446920 0.187440 -0.098341
v 0.446920 0.187440 0.062856
v 0.527518 0.187440 -0.017743
v 0.327696 0.198259 -0.017743
v 0.446920 0.198259 -0.136967
v 0.566144 0.198259 -0.017743
v 0.446920 0.198259 0.101481
v 0.327696 0.230417 -0.017743
v 0.446920 0.230417 -0.136967
v 0.566144 0.230417 -0.017743
v 0.446920 0.230417 0.101481
v -0.363485 -0.661515 -0.114983
v -0.363486 -0.631688 0.079497
v -0.363485 -0.661515 0.079497
v -0.557965 -0.631688 0.079497
v -0.557965 -0.661515 0.079497
v -0.557965 -0.661515 -0.114983
v -0.363485 -0.631688 -0.114983
v -0.392738 -0.631688 -0.085730
v -0.392738 -0.631688 0.050244
v -0.528713 -0.631688 0.050244
v -0.557965 -0.631688 -0.114983
v -0.528712 -0.631688 -0.085730
v -0.528712 -0.571598 -0.085730
v -0.392738 -0.571598 -0.085730
v -0.392738 -0.571598 0.050244
v -0.528713 -0.571598 0.050244
v -0.460725 -0.571598 -0.085730
v -0.392738 -0.571598 -0.085730
v -0.392738 -0.571598 -0.017743
v -0.528713 -0.571598 -0.017743
v -0.528712 -0.571598 -0.085730
v -0.460725 -0.571598 0.050244
v -0.528713 -0.571598 0.050244
v -0.392738 -0.571598 0.050244
v -0.392738 -0.571598 -0.085730
v -0.528713 -0.571598 -0.017743
v -0.392738 -0.571598 -0.017743
v -0.460725 -0.571598 0.050244
v -0.460725 -0.571598 -0.085730
v -0.528713 0.158319 -0.017743
v -0.460725 0.158319 -0.085730
v -0.460725 0.158319 0.050244
v -0.392738 0.158319 -0.017743
v -0.380127 0.168922 -0.017743
v -0.460725 0.168922 -0.098341
v -0.460725 0.168922 0.062856
v -0.541324 0.187440 -0.017743
v -0.460725 0.187440 -0.098341
v -0.460725 0.187440 0.062856
v -0.541324 0.168922 -0.017743
v -0.380127 0.187440 -0.017743
v -0.341502 0.198259 -0.017743
v -0.460725 0.198259 -0.136967
v -0.460726 0.198259 0.101481
v -0.460725 0.230417 -0.136967
v -0.579949 0.198259 -0.017743
v -0.579949 0.230417 -0.017743
v -0.460726 0.230417 0.101481
v -0.341502 0.230417 -0.017743
v 0.028521 0.216029 0.100642
v -0.002595 0.184504 0.100642
v 0.028521 0.216029 0.088387
v -0.034706 0.216197 0.088387
v -0.002595 0.184504 0.088387
v -0.003590 0.247723 0.088387
v -0.003590 0.247723 0.100642
v 0.110864 0.363682 0.100642
v -0.125631 0.368179 0.100642
v -0.034706 0.216197 0.100642
v -0.156747 0.336654 0.100642
v -0.156747 0.336654 0.088387
v 0.142974 0.331989 0.088387
v 0.142974 0.331989 0.100642
v 0.110864 0.363682 0.088387
v -0.125631 0.368179 0.088387
v 0.056225 0.486434 0.113445
v 0.134089 0.433959 0.085723
v 0.099875 0.434587 0.113445
v 0.074165 0.378296 0.094116
v 0.031158 0.395765 0.105118
v -0.056225 0.486434 0.113445
v -0.028112 0.470453 0.113445
v -0.099875 0.434587 0.113445
v -0.074165 0.378296 0.094116
v -0.134089 0.433959 0.085723
v 0.028112 0.470453 0.113445
v 0.000000 0.535558 0.085723
v 0.000000 0.336104 0.085723
v -0.031159 0.395765 0.105118
v -0.049937 0.434587 0.127977
v 0.049937 0.434587 0.127977
v 0.075486 0.503568 0.085724
v 0.099572 0.368794 0.088397
v -0.075486 0.503568 0.085723
v -0.099572 0.368794 0.088397
v 0.000000 0.434587 0.136967
v 0.000000 0.382740 0.113445
v 0.000000 0.486434 0.113445
v 0.075486 0.503568 0.085724
v 0.075486 0.469585 0.128147
v 0.134089 0.433959 0.102449
v 0.000000 0.535558 0.085723
v 0.000000 0.496938 0.128147
v 0.000000 0.336104 0.085723
v 0.000000 0.376010 0.117016
v -0.099572 0.408700 0.119690
v 0.134089 0.433959 0.085723
v 0.099572 0.408700 0.119690
v -0.134089 0.433959 0.102449
v -0.099572 0.368794 0.088397
v -0.075486 0.469585 0.128147
v -0.134089 0.433959 0.085723
v -0.075486 0.503568 0.085723
v 0.099572 0.368794 0.088397
v 0.660583 0.251606 -0.104560
v -0.660583 0.251606 -0.104560
v -0.660583 0.251606 0.084556
v 0.660583 0.251606 0.084556
v 0.044382 0.617568 0.084556
v 0.044382 0.617568 -0.104560
v -0.044382 0.617568 -0.104560
v -0.044382 0.617568 0.084556
v -0.591895 0.270632 0.084556
v 0.000000 0.270632 0.069687
v 0.591895 0.270632 0.084556
v -0.453863 0.352609 0.069687
v -0.591895 0.270632 0.069687
v -0.039767 0.598541 0.084556
v -0.315831 0.434587 0.069687
v -0.019883 0.598541 0.069687
v -0.039767 0.598541 0.069687
v 0.039767 0.598541 0.084556
v 0.295948 0.270632 0.069687
v 0.591895 0.270632 0.069687
v 0.000000 0.598541 0.069687
v 0.226932 0.352609 0.069687
v 0.453863 0.352609 0.069687
v -0.088899 0.516564 0.069687
v -0.177799 0.516564 0.069687
v 0.039767 0.598541 0.069687
v 0.019883 0.598541 0.069687
v 0.000000 0.270632 0.085723
v 0.295948 0.270632 0.085723
v -0.019883 0.598541 0.085723
v 0.315831 0.434587 0.069687
v 0.177799 0.516564 0.069687
v -0.088899 0.516564 0.085723
v 0.000000 0.598541 0.085723
v 0.157916 0.434587 0.069687
v 0.088899 0.516564 0.069687
v -0.226932 0.352609 0.069687
v -0.295948 0.270632 0.069687
v -0.157916 0.434587 0.069687
v 0.157916 0.434587 0.085723
v -0.157916 0.434587 0.085723
v -0.226932 0.352609 0.085723
v -0.295948 0.270632 0.085723
v 0.000000 0.319344 0.085723
v -0.099572 0.368794 0.088397
v -0.134089 0.433959 0.085723
v 0.000000 0.543917 0.085723
v 0.226932 0.352609 0.085723
v 0.134089 0.433959 0.085723
v 0.075486 0.503568 0.085724
v 0.088899 0.516564 0.085724
v 0.019883 0.598541 0.085724
v 0.099572 0.368794 0.088397
v 0.219128 0.324148 0.085395
v 0.011805 0.661515 0.095367
v 0.219128 0.324148 0.095367
v 0.193034 0.308112 0.095367
v 0.230628 0.279815 0.095367
v 0.193034 0.308112 0.085395
v 0.011805 0.661515 0.085395
v 0.230628 0.279815 0.085395
v -0.014290 0.645479 0.095367
v -0.014290 0.645479 0.085395
v 0.280650 0.206423 0.088511
v 0.280650 0.206423 0.092250
v 0.242056 0.286838 0.095367
v 0.284935 0.209056 0.092250
v 0.242056 0.286838 0.085395
v 0.284935 0.209056 0.088511
v -0.188148 0.322855 0.095367
v -0.212070 0.286174 0.095367
v -0.188148 0.322855 0.085395
v -0.213803 0.339585 0.095367
v -0.005656 0.658749 0.085395
v -0.213803 0.339586 0.085395
v -0.223305 0.293502 0.095367
v 0.019998 0.642018 0.085395
v -0.005656 0.658749 0.095367
v 0.019998 0.642018 0.095367
v -0.268258 0.216899 0.092250
v -0.223305 0.293502 0.085395
v -0.268258 0.216899 0.088511
v -0.212070 0.286174 0.085395
v -0.264045 0.214152 0.088511
v -0.264045 0.214152 0.092250
v 0.000000 0.336104 0.085723
v 0.000000 0.535558 0.085723
v -0.075486 0.503568 0.085723
vn 0.577349 -0.577349 0.577319
vn -0.577349 -0.577349 0.577349
vn 0.577349 -0.577349 -0.577349
vn -0.577349 0.577349 -0.577349
vn -0.577349 -0.577349 -0.577349
vn 0.577349 0.577349 -0.577319
vn 0.577319 0.577349 0.577349
vn -0.577349 0.577349 0.577349
vn 0.301492 0.904508 -0.301492
vn 0.301492 0.904508 0.301492
vn -0.301492 0.904508 0.301492
vn -0.301492 0.904508 -0.301492
vn -0.707083 -0.000153 0.707083
vn -0.707083 0.000153 -0.707083
vn 0.707083 0.000153 -0.707083
vn 0.707083 -0.000153 0.707083
vn 0.000000 -0.999969 0.000000
vn 0.000000 1.000000 0.000000
vn 0.000000 0.999969 0.000000
vn 0.665181 -0.738395 -0.110721
vn -1.000000 0.000000 0.000000
vn 0.942808 0.333323 0.000000
vn 0.000000 0.000000 1.000000
vn 0.000000 0.333323 -0.942808
vn 0.000000 -0.519181 -0.854640
vn 0.854640 -0.519181 0.000000
vn 0.000000 -0.519181 0.854640
vn 0.000000 -0.362804 -0.931852
vn -0.854640 -0.519181 0.000000
vn 0.931852 -0.362804 0.000000
vn 0.000000 -0.362804 0.931852
vn -0.931852 -0.362804 0.000000
vn -0.622333 -0.782708 0.000000
vn 0.000000 -0.782708 -0.622333
vn 0.000000 -0.782708 0.622333
vn 0.622333 -0.782708 0.000000
vn -0.866237 -0.499588 0.000000
vn 0.000000 -0.499588 -0.866237
vn 0.866237 -0.499588 0.000000
vn 0.000000 -0.499588 0.866237
vn -0.816492 0.577349 0.000000
vn 0.000000 0.577349 -0.816492
vn 0.816492 0.577349 0.000000
vn 0.000000 0.577349 0.816492
vn 0.577349 -0.577349 0.577349
vn -0.707083 0.000000 -0.707083
vn 0.707083 0.000000 -0.707083
vn -0.561998 -0.817957 -0.122654
vn 0.000000 -1.000000 0.000000
vn 0.503250 -0.496719 0.707083
vn 0.005310 -0.816462 0.577349
vn 0.503250 -0.496719 -0.707083
vn -0.496719 -0.503250 -0.707083
vn 0.005310 -0.816462 -0.577349
vn -0.002777 0.426374 -0.904508
vn -0.002777 0.426374 0.904508
vn -0.005310 0.816462 0.577349
vn -0.496719 -0.503250 0.707083
vn -0.816462 -0.005310 0.577349
vn -0.816462 -0.005310 -0.577349
vn 0.816462 0.005310 -0.577349
vn 0.816462 0.005310 0.577349
vn -0.005310 0.816462 -0.577319
vn -0.005310 0.816462 -0.577349
vn -0.205573 -0.462264 -0.862575
vn -0.566698 -0.014893 -0.823756
vn -0.489761 0.040590 -0.870876
vn -0.150578 0.316599 -0.936521
vn -0.209387 0.466506 -0.859340
vn 0.197974 -0.391034 -0.898801
vn 0.094089 -0.383984 -0.918516
vn 0.488876 0.016083 -0.872189
vn 0.161870 0.343730 -0.924986
vn 0.566698 -0.014893 -0.823756
vn 0.001587 -0.369396 -0.929258
vn 0.000000 -0.508408 -0.861080
vn 0.000000 0.334880 -0.942259
vn 0.121342 0.426252 -0.896420
vn 0.215705 0.017365 -0.976287
vn -0.213874 0.115146 -0.970031
vn -0.449324 -0.585925 -0.674337
vn -0.165197 0.145329 -0.975463
vn 0.449324 -0.585925 -0.674337
vn 0.165197 0.145329 -0.975463
vn 0.016755 0.016602 -0.999695
vn 0.051332 0.471175 -0.880520
vn -0.013733 -0.431074 -0.902188
vn 0.442274 0.715781 0.540361
vn 0.465438 0.683676 0.562059
vn 0.986663 -0.110385 0.119541
vn -0.009705 0.747551 0.664113
vn -0.015900 0.747093 0.664510
vn 0.000000 -0.617054 0.786889
vn -0.462478 -0.547075 0.697684
vn 0.987030 -0.004151 0.160283
vn 0.553331 -0.562090 0.614673
vn -0.959410 0.235511 0.155034
vn -0.370251 -0.598407 0.710471
vn -0.502304 0.696921 0.511795
vn -0.969054 0.214789 0.121555
vn -0.440809 0.691214 0.572588
vn 0.385083 -0.569445 0.726218
vn -0.810602 0.222541 0.541612
vn 0.810602 0.222541 0.541612
vn 0.810602 0.222541 -0.541612
vn -0.810602 0.222541 -0.541612
vn -0.200720 -0.731071 -0.652058
vn -0.200720 -0.731071 0.652058
vn 0.200720 -0.731071 0.652058
vn 0.200720 -0.731071 -0.652058
vn -0.138096 -0.037904 -0.989685
vn 0.138096 -0.037904 -0.989685
vn -0.361064 0.607959 -0.707083
vn -0.810602 -0.222541 -0.541612
vn -0.168340 0.613117 -0.771813
vn 0.757653 0.352550 -0.549181
vn -0.200720 0.731071 -0.652058
vn 0.168340 0.613117 -0.771813
vn -0.329875 -0.708945 -0.623310
vn 0.810602 -0.222541 -0.541612
vn -0.540910 -0.455397 -0.707083
vn 0.361064 0.607959 -0.707083
vn 0.540910 -0.455397 -0.707083
vn 0.200720 0.731071 -0.652058
vn -0.757653 0.352550 -0.549181
vn 0.000000 0.707083 -0.707083
vn 0.329875 -0.708945 -0.623310
vn 0.000000 -0.707083 -0.707083
vn 0.542680 -0.464614 -0.699698
vn 0.544298 -0.453230 -0.705893
vn 0.004151 0.003845 -0.999969
vn 0.011017 0.064760 -0.997833
vn -0.000519 -0.020020 -0.999786
vn 0.000000 0.000000 -1.000000
vn -0.543962 -0.453658 -0.705863
vn -0.007569 -0.008637 -0.999908
vn -0.013947 0.041353 -0.999023
vn 0.602435 0.370220 -0.707083
vn 0.189581 0.794153 0.577349
vn 0.602435 0.370220 0.707083
vn -0.550707 -0.501144 0.667501
vn -0.471419 -0.467086 0.748039
vn -0.550707 -0.501144 -0.667501
vn 0.189581 0.794153 -0.577349
vn -0.471419 -0.467086 -0.748039
vn -0.794153 0.189581 0.577319
vn -0.794153 0.189581 -0.577349
vn -0.166936 -0.805536 -0.568499
vn -0.166936 -0.805536 0.568499
vn 0.618336 0.346263 0.705496
vn 0.794061 -0.214942 0.568529
vn 0.618336 0.346263 -0.705496
vn 0.794061 -0.214942 -0.568499
vn 0.592273 -0.386242 0.707083
vn 0.577410 -0.410871 0.705496
vn 0.592273 -0.386242 -0.707083
vn -0.688498 0.283517 0.667501
vn -0.168187 0.798975 -0.577349
vn -0.688498 0.283517 -0.667501
vn -0.623829 0.226386 0.748039
vn 0.798975 0.168187 -0.577349
vn -0.168187 0.798975 0.577319
vn 0.798975 0.168187 0.577349
vn -0.799554 -0.193548 0.568499
vn -0.623829 0.226417 -0.748039
vn -0.799554 -0.193548 -0.568499
vn 0.577410 -0.410871 -0.705496
vn 0.145238 -0.809717 -0.568499
vn 0.145238 -0.809717 0.568529
vn 0.013916 0.006806 -0.999878
f 1//1 2//2 3//3
f 2//2 4//4 5//5
f 6//6 7//7 3//3
f 8//8 1//1 7//7
f 7//7 9//9 10//10
f 8//8 10//10 11//11
f 11//11 12//12 4//4
f 12//12 9//9 6//6
f 12//12 13//13 14//14
f 10//10 15//15 16//16
f 16//16 17//17 13//13
f 16//16 18//18 19//18
f 14//14 20//17 21//19
f 14//14 22//18 15//15
f 23//19 20//17 13//13
f 24//20 18//18 15//15
f 20//17 25//21 22//18
f 17//17 26//22 27//23
f 18//18 28//18 26//22
f 29//24 28//18 24//20
f 29//24 30//25 26//22
f 31//26 32//27 27//23
f 30//25 33//28 31//26
f 32//27 34//29 25//21
f 32//27 35//30 36//31
f 34//29 37//32 30//25
f 33//28 38//33 39//34
f 36//31 40//35 37//32
f 35//30 39//34 41//36
f 39//34 42//37 43//38
f 40//35 44//39 45//40
f 38//33 45//40 42//37
f 43//38 44//39 41//36
f 43//38 46//41 47//42
f 44//39 47//42 48//43
f 48//43 49//44 45//40
f 49//44 46//41 42//37
f 50//3 51//7 52//45
f 52//45 53//8 54//2
f 54//2 55//5 50//3
f 56//6 57//9 51//7
f 53//8 58//10 59//11
f 60//4 61//12 56//6
f 61//12 62//46 57//9
f 57//9 63//47 58//10
f 64//16 65//13 59//11
f 63//47 66//18 67//48
f 63//47 68//18 64//16
f 62//46 69//49 70//19
f 65//13 71//17 72//19
f 73//18 71//17 64//16
f 67//48 74//18 68//18
f 69//49 75//21 66//18
f 71//17 76//22 77//23
f 78//24 79//29 80//25
f 77//23 81//27 75//21
f 76//22 74//18 78//24
f 82//26 83//30 81//27
f 80//25 84//28 82//26
f 81//27 85//31 79//29
f 84//28 86//33 87//34
f 85//31 88//35 89//32
f 83//30 90//36 85//31
f 90//36 91//39 88//35
f 87//34 92//38 90//36
f 88//35 93//40 86//33
f 92//38 94//42 91//39
f 95//37 96//41 92//38
f 93//40 97//44 95//37
f 91//39 98//43 93//40
f 98//43 96//41 97//44
f 99//50 100//51 101//52
f 100//51 102//53 103//54
f 103//54 104//55 101//52
f 105//56 106//57 104//55
f 105//56 107//57 108//58
f 108//58 109//59 102//53
f 102//53 110//60 104//55
f 111//61 112//62 99//50
f 113//63 106//57 111//61
f 110//60 109//59 114//64
f 7//7 1//1 3//3
f 1//1 8//8 2//2
f 2//2 5//5 3//3
f 5//5 4//4 6//6
f 6//6 9//9 7//7
f 7//7 10//10 8//8
f 8//8 11//11 4//4
f 11//11 13//13 12//12
f 12//12 14//14 9//9
f 10//10 16//16 11//11
f 9//9 15//15 10//10
f 15//15 18//18 16//16
f 13//13 20//17 14//14
f 13//13 17//17 23//19
f 19//18 17//17 16//16
f 24//20 28//18 18//18
f 20//17 22//18 21//19
f 17//17 27//23 20//17
f 22//18 29//24 24//20
f 18//18 26//22 17//17
f 25//21 34//29 29//24
f 27//23 32//27 25//21
f 26//22 28//18 29//24
f 26//22 31//26 27//23
f 31//26 35//30 32//27
f 34//29 36//31 37//32
f 37//32 33//28 30//25
f 33//28 39//34 35//30
f 35//30 41//36 36//31
f 41//36 44//39 40//35
f 39//34 43//38 41//36
f 40//35 38//33 37//32
f 38//33 42//37 39//34
f 43//38 47//42 44//39
f 42//37 46//41 43//38
f 45//40 49//44 42//37
f 44//39 48//43 45//40
f 48//43 46//41 49//44
f 52//45 54//2 50//3
f 54//2 60//4 55//5
f 56//6 51//7 50//3
f 51//7 53//8 52//45
f 51//7 57//9 58//10
f 59//11 61//12 60//4
f 61//12 57//9 56//6
f 61//12 65//13 62//46
f 58//10 64//16 59//11
f 57//9 62//46 63//47
f 64//16 71//17 65//13
f 64//16 68//18 73//18
f 72//19 69//49 65//13
f 70//19 66//18 62//46
f 67//48 68//18 63//47
f 69//49 77//23 75//21
f 66//18 78//24 67//48
f 68//18 74//18 76//22
f 78//24 80//25 76//22
f 82//26 81//27 77//23
f 81//27 79//29 75//21
f 81//27 83//30 85//31
f 79//29 85//31 89//32
f 89//32 84//28 80//25
f 84//28 83//30 82//26
f 83//30 87//34 90//36
f 90//36 88//35 85//31
f 87//34 95//37 92//38
f 88//35 86//33 89//32
f 88//35 91//39 93//40
f 86//33 93//40 95//37
f 92//38 91//39 90//36
f 92//38 96//41 94//42
f 91//39 94//42 98//43
f 98//43 97//44 93//40
f 97//44 96//41 95//37
f 101//52 113//63 111//61
f 99//50 108//58 100//51
f 99//50 112//62 105//56
f 100//51 103//54 101//52
f 103//54 102//53 104//55
f 104//55 106//57 113//63
f 104//55 110//60 114//64
f 108//58 107//57 109//59
f 102//53 109//59 110//60
f 111//61 106//57 112//62
f 114//64 107//57 105//56
f 5//5 6//6 3//3
f 8//8 4//4 2//2
f 4//4 12//12 6//6
f 9//9 14//14 15//15
f 16//16 13//13 11//11
f 15//15 22//18 24//20
f 23//19 17//17 20//17
f 21//19 22//18 14//14
f 19//18 18//18 17//17
f 20//17 27//23 25//21
f 22//18 25//21 29//24
f 29//24 34//29 30//25
f 26//22 30//25 31//26
f 32//27 36//31 34//29
f 37//32 38//33 33//28
f 33//28 35//30 31//26
f 41//36 40//35 36//31
f 40//35 45//40 38//33
f 47//42 46//41 48//43
f 55//5 60//4 56//6
f 51//7 58//10 53//8
f 53//8 59//11 60//4
f 59//11 65//13 61//12
f 58//10 63//47 64//16
f 62//46 66//18 63//47
f 65//13 69//49 62//46
f 72//19 71//17 69//49
f 73//18 68//18 71//17
f 69//49 66//18 70//19
f 78//24 74//18 67//48
f 75//21 79//29 78//24
f 76//22 80//25 82//26
f 79//29 89//32 80//25
f 89//32 86//33 84//28
f 84//28 87//34 83//30
f 86//33 95//37 87//34
f 94//42 96//41 98//43
f 101//52 111//61 99//50
f 104//55 113//63 101//52
f 104//55 114//64 105//56
f 105//56 108//58 99//50
f 108//58 102//53 100//51
f 112//62 106//57 105//56
f 109//59 107//57 114//64
f 55//5 56//6 50//3
f 53//8 60//4 54//2
f 71//17 77//23 69//49
f 66//18 75//21 78//24
f 68//18 76//22 71//17
f 76//22 82//26 77//23
f 115//65 116//66 117//67
f 118//68 119//69 117//67
f 120//70 121//71 122//72
f 123//73 124//74 122//72
f 125//75 126//76 115//65
f 119//69 127//77 128//78
f 118//68 127//77 119//69
f 120//70 126//76 121//71
f 123//73 129//79 128//78
f 117//67 130//80 115//65
f 117//67 116//66 118//68
f 122//72 124//74 120//70
f 121//71 129//79 122//72
f 122//72 129//79 123//73
f 119//69 130//80 117//67
f 121//71 126//76 125//75
f 128//78 127//77 123//73
f 115//65 130//80 125//75
f 115//65 126//76 131//81
f 118//68 116//66 132//82
f 120//70 133//83 126//76
f 120//70 124//74 133//83
f 131//81 116//66 115//65
f 132//82 127//77 118//68
f 127//77 134//84 123//73
f 134//84 124//74 123//73
f 135//85 130//80 136//86
f 128//78 129//79 135//85
f 137//87 125//75 135//85
f 136//86 128//78 135//85
f 136//86 130//80 119//69
f 135//85 129//79 137//87
f 125//75 130//80 135//85
f 137//87 129//79 121//71
f 138//88 139//89 140//90
f 141//91 142//92 139//89
f 143//93 144//93 145//94
f 146//95 140//90 147//96
f 145//94 148//97 149//98
f 148//97 150//99 151//100
f 150//99 142//92 152//101
f 147//96 144//93 153//102
f 154//103 155//104 156//105
f 157//106 158//107 154//103
f 159//108 160//109 155//104
f 158//107 161//110 159//108
f 161//110 162//111 156//105
f 162//111 163//49 164//112
f 162//111 165//113 166//114
f 167//115 168//113 162//111
f 167//115 169//116 170//117
f 164//112 171//118 157//106
f 164//112 172//119 173//120
f 171//118 174//18 167//115
f 173//120 175//121 176//122
f 170//117 177//123 178//113
f 179//124 180//125 171//118
f 163//49 181//126 182//125
f 174//18 183//127 169//116
f 184//122 185//122 171//118
f 169//116 186//123 177//123
f 180//125 187//128 174//18
f 176//122 188//121 184//122
f 185//122 189//121 180//125
f 165//113 190//123 191//127
f 178//113 192//123 168//113
f 175//121 193//121 188//121
f 177//123 194//129 192//123
f 190//123 195//130 196//116
f 196//116 181//126 191//127
f 195//130 197//131 181//126
f 194//129 198//132 195//130
f 186//123 199//133 194//129
f 183//127 200//134 186//123
f 182//125 201//135 172//119
f 201//135 202//136 193//121
f 193//121 203//134 204//121
f 204//121 205//119 189//121
f 204//121 200//134 187//128
f 197//131 206//137 201//135
f 207//138 208//139 209//140
f 210//141 211//142 209//140
f 212//143 213//144 207//138
f 212//143 214//145 210//141
f 213//144 215//146 208//139
f 215//146 216//147 210//141
f 211//142 217//148 218//149
f 219//150 220//151 221//152
f 218//149 222//153 220//151
f 222//153 217//148 214//145
f 223//154 224//155 225//156
f 226//157 227//158 228//159
f 226//157 229//160 223//154
f 228//159 230//161 225//156
f 230//161 231//162 232//163
f 229//160 233//164 224//155
f 234//165 235//166 229//160
f 236//167 237//168 234//165
f 224//155 238//169 236//167
f 233//164 235//166 237//168
f 138//88 140//90 146//95
f 141//91 139//89 138//88
f 153//102 144//93 143//93
f 143//93 145//94 149//98
f 152//101 142//92 141//91
f 149//98 148//97 151//100
f 146//95 147//96 153//102
f 151//100 150//99 152//101
f 154//103 159//108 155//104
f 157//106 171//118 158//107
f 156//105 164//112 157//106
f 155//104 160//109 156//105
f 161//110 160//109 159//108
f 161//110 167//115 162//111
f 162//111 191//127 163//49
f 167//115 178//113 168//113
f 164//112 176//122 184//122
f 171//118 180//125 174//18
f 171//118 185//122 179//124
f 166//114 165//113 191//127
f 163//49 172//119 164//112
f 174//18 169//116 167//115
f 174//18 187//128 183//127
f 168//113 165//113 162//111
f 172//119 175//121 173//120
f 169//116 177//123 170//117
f 169//116 183//127 186//123
f 176//122 175//121 188//121
f 178//113 177//123 192//123
f 188//121 189//121 184//122
f 192//123 190//123 168//113
f 192//123 194//129 195//130
f 177//123 186//123 194//129
f 190//123 196//116 191//127
f 195//130 181//126 196//116
f 195//130 239//170 197//131
f 182//125 197//131 201//135
f 201//135 193//121 175//121
f 193//121 204//121 188//121
f 204//121 240//134 200//134
f 205//119 187//128 180//125
f 200//134 241//134 186//123
f 207//138 219//150 221//152
f 210//141 216//147 212//143
f 212//143 221//152 214//145
f 213//144 208//139 207//138
f 213//144 216//147 215//146
f 208//139 215//146 209//140
f 211//142 219//150 209//140
f 214//145 217//148 211//142
f 219//150 218//149 220//151
f 220//151 222//153 221//152
f 218//149 217//148 222//153
f 225//156 224//155 236//167
f 226//157 234//165 229//160
f 228//159 227//158 230//161
f 228//159 236//167 234//165
f 230//161 232//163 225//156
f 232//163 231//162 223//154
f 231//162 227//158 226//157
f 229//160 224//155 223//154
f 229//160 235//166 233//164
f 224//155 233//164 238//169
f 238//169 237//168 236//167
f 237//168 235//166 234//165
f 154//103 156//105 157//106
f 154//103 158//107 159//108
f 156//105 160//109 161//110
f 158//107 167//115 161//110
f 162//111 164//112 156//105
f 164//112 184//122 171//118
f 173//120 176//122 164//112
f 166//114 191//127 162//111
f 170//117 178//113 167//115
f 179//124 185//122 180//125
f 163//49 182//125 172//119
f 184//122 189//121 185//122
f 168//113 190//123 165//113
f 172//119 201//135 175//121
f 191//127 181//126 163//49
f 188//121 204//121 189//121
f 192//123 195//130 190//123
f 189//121 205//119 180//125
f 195//130 198//132 239//170
f 194//129 199//133 198//132
f 193//121 202//136 203//134
f 204//121 187//128 205//119
f 187//128 200//134 183//127
f 181//126 197//131 182//125
f 197//131 239//170 206//137
f 203//134 240//134 204//121
f 240//134 241//134 200//134
f 206//137 202//136 201//135
f 241//134 199//133 186//123
f 207//138 221//152 212//143
f 209//140 215//146 210//141
f 209//140 219//150 207//138
f 210//141 214//145 211//142
f 212//143 216//147 213//144
f 211//142 218//149 219//150
f 221//152 222//153 214//145
f 225//156 232//163 223//154
f 225//156 236//167 228//159
f 223//154 231//162 226//157
f 228//159 234//165 226//157
f 230//161 227//158 231//162
f 233//164 237//168 238//169
f 158//107 171//118 167//115
